<svg width="510" height="498" viewBox="0 0 510 498" fill="none" xmlns="http://www.w3.org/2000/svg">
<path d="M304.99 35.3894C310.965 34.436 322.252 36.267 328.361 37.8403C348.307 42.9776 365.434 54.8974 375.95 72.8141C387.305 92.1617 389.441 116.202 383.647 137.679C376.676 163.518 358.788 193.441 335.183 207.136C336.086 209.713 337.637 213.529 338.039 216.107C338.599 219.695 338.411 223.62 339.429 227.189C340.788 231.954 343.119 236.251 345.005 240.76C347.709 247.226 350.45 253.459 353.363 259.831C362.187 256.159 370.9 252.224 379.487 248.03C379.231 243.441 379.239 239.59 380.637 235.167C382.244 230.084 384.687 223.611 389.738 221.03C392.988 219.37 396.928 218.996 400.373 220.126C402.403 214.958 407.451 201.816 412.252 199.35C418.214 197.449 427.785 203.458 432.715 205.228C450.111 211.472 451.122 213.799 443.359 230.741C447.956 234.09 451.561 240.626 445.957 245.03C444.895 245.864 443.732 246.399 442.527 246.994C443.211 252.718 442.787 254.568 437.863 257.565C437.995 263.087 437.329 264.74 432.418 267.361C432.457 274.148 429.387 277.402 422.501 276.431C417.35 286.592 411.689 283.178 403.231 279.421C401.933 278.845 400.609 278.222 399.318 277.628C394.154 280.66 387.995 283.764 382.605 286.579C372.987 291.457 363.407 296.894 352.898 299.615C336.55 303.848 327.85 289.529 320.179 277.976C316.098 284.058 309.743 288.503 305.612 293.547C303.985 295.533 298.26 307.588 296.799 310.675C293.516 317.609 288.032 327.118 285.287 334.092C299.292 344.8 315.994 354.411 328.558 366.942C334.471 372.84 339.581 389.533 342.77 397.869C346.492 407.578 350.268 417.265 354.098 426.93C357.242 434.857 359.936 442.25 364.172 449.666C377.176 448.644 390.2 443.679 403.216 447.088C408.258 448.409 413.466 453.695 411.337 459.117C408.276 466.915 398.238 471.924 391.276 475.85C386.458 478.566 381.33 480.727 376.438 483.3C367.962 487.417 354.235 495.366 344.772 492.492C336.585 490.007 333.108 475.63 329.546 468.51C326.298 462.396 322.811 457.569 318.928 451.88C312.063 441.822 304.737 431.987 298.841 421.323C297.146 418.208 295.543 415.043 294.034 411.834C287.074 397.063 289.729 398.579 273.857 391.797C263.716 387.463 252.839 382.102 242.742 377.501C238.348 381.505 234.324 385.906 230.104 390.092C222.335 397.798 213.891 405.426 204.679 411.387C199.629 414.655 193.929 417.32 187.879 417.938C174.587 419.298 159.626 412.192 147.429 407.484C141.661 405.258 135.836 403.204 130.022 401.102C125.894 399.609 121.665 397.851 117.357 396.969C108.189 395.092 101.777 401.726 94.7441 406.334C90.4454 409.151 84.9599 411.877 79.6692 410.686C77.1261 410.113 74.4974 408.485 73.1313 406.229C71.2606 403.142 71.415 399.267 72.2124 395.872C74.7375 385.119 91.1721 361.125 100.626 355.404C103.903 353.422 107.637 352.775 111.402 353.502C117.852 354.749 121.385 360.856 127.515 362.683C133.287 364.404 139.513 364.751 145.447 365.712C154.624 367.199 163.743 369.018 172.788 371.165C181.758 360.256 188.776 347.322 197.188 336.227C195.86 324.222 196.057 319.961 199.229 308.015C192.85 308.002 187.206 308.268 180.603 307.999C162.364 307.256 143.169 303.628 127.146 294.551C123.337 292.418 117.592 287.539 116.951 282.873C116.007 276.004 118.515 266.05 119.723 259.143L127.242 217.753L134.117 177.933C135.374 170.561 136.516 163.097 138.006 155.781C138.506 153.326 139.379 149.122 140.793 147.133C144.218 142.865 152.714 140.923 158.019 140.251C185.107 136.825 214.636 138.869 240.338 148.389C243.326 149.496 248.395 151.633 250.792 153.322C249.133 149.822 246.75 145.914 244.946 142.326C240.086 132.839 237.003 122.543 235.847 111.946C234.045 93.9039 239.576 75.8945 251.194 61.9731C261.067 49.7102 274.768 41.1139 290.105 37.561C295.213 36.385 299.787 35.9129 304.99 35.3894ZM289.183 227.053C296.243 231.84 299.593 234.215 295.713 243.015C297.924 248.485 297.451 251.318 292.811 255.225C294.164 261.15 292.103 262.281 288.283 266.282C287.583 267.015 287.011 268.889 286.425 269.814C282.465 275.448 273.249 275.607 267.195 275.41C254.945 289.431 235.302 297.87 216.843 299.139C214.413 299.284 211.981 299.404 209.548 299.498C205.3 312.814 199.233 325.91 206.311 339.514C218.171 362.308 255.049 375.407 277.492 385.397C282.123 387.459 289.627 390.01 292.952 393.764C296.348 397.599 298.375 404.306 300.61 409.016C302.307 412.59 304.222 416.103 306.167 419.546C314.675 434.598 325.554 448.013 334.476 462.767C338.021 468.628 339.415 475.598 343.057 481.368C344.18 483.148 345.61 484.879 347.666 485.568C352.595 487.222 362.825 481.664 367.468 479.509C374.48 476.241 401.424 464.454 403.774 457.721C404.05 456.929 404.034 456.084 403.67 455.322C403.148 454.228 402.036 453.632 400.925 453.287C390.229 449.971 368.89 459.151 361.706 456.329C359.04 455.282 357.11 452.485 355.769 450.06C352.005 443.252 349.877 435.572 347.132 428.323C343.003 417.418 338.605 406.605 334.563 395.67C332.214 389.319 330.202 382.221 326.723 376.388C325.054 373.59 322.737 371.265 320.344 369.083C314.445 363.705 307.873 359.086 301.4 354.439C295.151 349.952 288.924 345.423 282.615 341.022C278.204 337.945 272.716 335.267 268.94 331.447C267.692 330.184 266.828 328.934 267.337 327.102C267.481 326.585 267.789 326.074 268.272 325.808C269.523 325.118 271.491 325.838 272.678 326.347C274.976 327.333 277.043 328.818 279.113 330.204C285.388 317.802 291.566 305.351 297.646 292.852C301.294 285.35 304.693 277.73 307.837 270.003C315.596 251.185 322.995 230.62 317.541 210.102C314.532 209.297 317.541 210.102 314.532 209.297C312.275 207.845 307.01 205.589 306.258 204.837C299.516 200.858 297.737 200.294 291.303 195.646C287.881 193.175 281.483 187.048 278.401 185.257C279.705 191.133 281.392 192.043 283.921 197.063C288.64 206.434 289.351 216.76 289.183 227.053ZM283.104 267.207C281.031 267.117 276.442 266.891 275.297 264.864C275.628 261.018 287.307 263.995 288.297 259.267C288.458 258.493 288.288 258.541 287.888 258.014C284.896 256.589 278.165 258.621 276.902 256.126C278.083 250.708 295.633 254.436 291.444 245.68C290.738 245.471 285.741 247.126 284.316 247.284C283.019 247.428 281.883 247.56 280.496 247.626C279.694 247.428 279.142 247.396 278.588 246.803C278.213 245.973 278.168 246.001 278.324 245.062C281.035 240.648 301.562 242.407 288.279 232.293C283.683 235.541 280.314 235.621 274.898 235.515C265.285 235.328 264.749 234.217 264.528 225.233C256.9 229.636 253.684 234.193 248.742 241.196C237.078 238.471 225.346 233.992 213.242 232.26C210.521 231.871 204.308 231.61 202.872 229.471C202.349 222.815 227.225 229.564 230.717 230.528C234.612 228.616 238.325 226.689 242.547 225.35C244.218 224.821 249.573 223.771 248.133 227.603C247.153 230.211 242.8 231.744 240.264 232.67C240.088 232.735 239.91 232.798 239.731 232.857C241.936 233.682 244.147 234.49 246.364 235.281L246.512 235.124C247.796 233.735 249.407 231.398 250.628 229.868C254.924 224.479 258.108 222.51 264.373 220.174C262.234 211.414 260.222 201.515 251.622 196.381C248.63 194.617 245.186 193.773 241.718 193.953C229.271 195.666 204.947 213.787 194.639 221.235C188.274 225.833 177.609 236.391 178.799 244.916C179.271 248.299 181.649 251.575 184.524 253.515C197.253 261.565 216.057 262.397 230.704 262.832C235.363 262.97 239.719 262.945 244.293 263.274C246.315 263.42 248.946 265.675 250.888 266.577C258.181 269.961 267.463 270.947 275.417 270.174C277.928 269.93 281.038 268.523 283.104 267.207ZM104.516 391.634C112.383 387.682 118.337 389.459 126.405 392.081C138.908 396.169 150.961 401.855 163.412 406.019C173.477 409.386 185.364 413.538 195.375 408.02C210.948 399.435 223.615 386.825 235.694 374.01C223.545 367.573 211.513 360.553 203.892 348.913C203.232 347.906 200.991 344.774 200.095 344.246C193.851 352.461 188.674 361.4 182.644 369.766C180.441 372.823 177.987 376.489 175.322 379.118C164.11 376.52 152.822 374.258 141.475 372.338C136.534 371.489 131.067 371.384 126.298 370.032C118.256 367.754 116.363 361.493 107.626 359.931C99.9506 362.035 88.3118 378.893 84.291 385.944C82.2286 389.561 77.924 396.939 78.9286 401.017C79.1597 401.955 79.6776 402.77 80.5557 403.218C82.397 404.158 85.1387 403.212 86.9526 402.534C93.5368 400.072 98.3917 394.838 104.516 391.634ZM202.771 299.875C197.486 298.292 183.886 298.88 178.382 298.111C180.962 297.846 195.768 296.289 197.744 294.556L197.872 294.062C197.315 293.161 196.327 293.398 194.823 293.398C191.814 293.398 194.071 293.398 180.531 293.398C185.796 291.894 195.337 291.468 197.505 291.35C197.622 289.76 197.757 288.694 198.021 287.121C196.462 286.875 186.603 287.485 185.151 287.121C187.238 286.797 196.505 285.553 198.6 285.289C199.562 283.975 200.533 282.667 201.515 281.368C199.94 281.252 192.749 280.741 191.169 280.81C194.108 279.781 208.426 277.916 211.354 277.752L212.074 274.406C185.883 276.327 147.809 274.405 127.032 256.332C125.657 262.283 121.376 278.689 124.579 283.503C129.796 291.346 147.035 297.002 156.129 298.842C166.65 300.97 193.359 304.433 202.771 299.875ZM312.768 42.108C291.843 42.5727 274.303 47.345 259.396 62.9876C215.407 109.147 266.886 178.952 312.212 199.918C328.277 205.853 335.809 201.036 346.99 189.196C373.204 161.437 389.876 118.465 372.852 81.7247C362.729 59.8754 336.863 42.89 312.768 42.108ZM139.635 183.597C142.308 185.854 144.944 188.067 148.119 189.982C165.556 200.498 187.372 202.491 207.305 203.163C209.563 203.239 212.497 201.522 214.457 200.509C212.726 200.121 210.844 199.886 209.387 199.639C207.61 199.338 199.615 199.155 198.804 198.642L198.959 198.41C203.326 198.129 218.98 196.157 222.742 194.751C223.169 194.661 223.236 194.604 223.642 194.43C223.19 194.053 221.745 193.973 221.026 193.868C215.158 193.4 205.145 191.876 199.953 189.831C210.832 190.203 217.483 191.224 228.752 188.034C224.841 187.861 207.817 187.325 204.709 186.031L203.133 185.358C203.691 185.071 206.857 185.202 207.71 185.183C215.609 185.012 222.935 184.635 230.525 182.139C222.952 182.27 216.863 182.178 209.345 181.546C206.134 180.685 204.381 180.841 200.871 179.478C203.49 179.433 206.511 179.536 209.137 179.592C223.088 179.839 229.401 180.082 242.678 174.106C239.766 174.34 236.805 174.583 233.906 174.943C223.163 176.276 212.182 175.827 201.407 174.856C181.467 173.061 160.963 170.433 143.981 158.922C142.85 166.413 141.447 176.41 139.635 183.597ZM414.748 204.081C410.925 206.745 407.08 218.04 404.839 222.949C407.665 230.202 413.121 243.269 398.882 242.416C397.565 242.337 396.869 240.903 396.147 242.703C393.382 249.509 388.346 257.885 387.079 265.055C387.511 265.667 388.098 266.446 388.716 266.847C393.324 269.843 409.784 277.142 414.568 278.053C415.445 277.488 416.101 277.191 416.624 276.319C416.855 274.216 413.604 273.732 411.983 272.809C405.484 268.698 404.099 264.312 409.984 258.725C407.577 253.173 409.152 250.57 413.665 247.239C412.381 240.244 414.715 236.78 421.658 235.553C420.685 230.818 422.18 226.305 427.47 225.464C431.032 224.898 435.516 226.683 438.566 228.447C440.323 224.535 442.013 220.867 442.933 216.638C442.531 216.133 441.851 215.341 441.311 215.038C435.915 212.019 420.311 204.897 414.748 204.081ZM424.707 265.123C420.059 265.145 417.177 263.081 412.745 261.9C406.696 266.155 413.403 269.208 417.342 270.965C419.383 271.876 421.727 272.495 423.961 272.489C429.96 272.346 427.663 268.319 428.469 265.598C429.729 261.345 434.323 265.531 433.417 258.332L433.013 255.357C440.189 251.628 439.146 251.655 437.411 244.574C440.208 243.498 441.154 243.326 443.625 241.628C445.933 237.505 443.024 235.226 439.496 233.253C436.253 231.44 432.648 230.096 429.111 228.972C426.658 230.045 424.523 231.441 425.51 234.392C426.664 237.842 434.678 239.641 435.091 242.624C433.691 245.335 429.138 242.323 427.224 241.509C423.102 239.588 416.752 237.851 417.586 244.903C417.771 246.473 419.742 247.247 420.694 247.965C422.816 249.567 430.765 250.718 430.15 254.082C427.487 256.445 419.038 250.933 415.803 250.983C414.479 251.004 413.103 253.029 413.097 254.482C413.072 260.412 423.32 259.556 424.965 263.744C424.918 264.414 424.956 264.513 424.707 265.123ZM251.833 182.25C245.157 183.502 242.654 184.686 237.448 189.076C243.715 187.709 250.495 188.039 255.901 191.757C267.981 200.064 270.505 214.793 270.613 228.304C270.795 229.097 270.751 229.656 271.507 230.038C274.043 231.322 279.414 230.092 282.235 229.903C284.545 211.333 277.561 185.073 255.846 182.316C254.553 182.152 253.132 182.151 251.833 182.25ZM239.585 268.86C233.716 268.948 226.535 268.971 220.712 268.278C220.084 271.166 218.924 274.395 217.959 277.212C223.49 275.888 226.945 275.131 232.21 272.868C234.597 271.712 237.475 270.398 239.585 268.86ZM215.298 292.934C232.101 291.134 245.863 285.807 258.751 274.665C255.27 273.5 251.413 272.119 247.916 271.07C238.401 277.803 229.214 282.26 217.509 283.739C214.097 284.246 210.348 283.85 207.096 285.062C204.904 285.879 203.081 289.815 204.776 291.636C206.842 293.857 212.556 293.234 215.298 292.934ZM312.322 277.171C313.138 276.146 314.174 274.911 314.924 273.869C328.205 255.912 336.728 231.182 328.96 209.297L325.418 209.474C324.476 209.541 324.179 209.38 323.636 209.875C323.551 211.922 324.024 215.414 324.387 217.532C327.274 234.412 322.404 250.661 316.328 266.225C314.925 269.819 313.784 273.623 312.322 277.171ZM134.251 216.067C144.038 227.592 160.846 230.935 175.108 234.182C178.105 228.49 180.63 225.742 185.207 221.418C190.394 216.814 195.731 212.5 201.671 208.877C185.194 207.906 165.315 205.134 150.227 198.032C146.498 196.277 141.927 193.111 138.382 190.785C137.229 197.008 134.525 210.068 134.251 216.067ZM251.936 171.487C249.999 172.138 248.982 172.515 247.176 173.51C255.859 167.978 254.355 177.757 247.5 177.412C255.107 170.987 247.764 177.59 248.337 177.457C250.275 176.68 246.008 174.309 245.328 171.739C244.57 171.268 252.817 171.442 251.936 171.487ZM258.642 175.848C261.601 176.133 264.554 176.469 267.501 176.854L268.311 176.876C269.272 174.513 262.304 168.318 260.46 166.874C260.014 169.379 259.387 173.524 258.642 175.848ZM172.699 239.542C159.38 237.26 147.504 233.718 136.166 226.219C135.103 225.516 133.787 224.699 132.674 224.097C130.903 232.33 129.92 240.903 128.236 248.815C130.935 251.505 134.198 254.785 137.488 256.698C153.132 265.798 178.884 269.321 196.6 269.317C199.904 269.294 203.205 269.106 206.49 268.757C208.355 268.456 210.267 268.115 212.128 267.843C199.643 265.652 183.093 264.008 175.372 252.861C172.348 248.494 172.365 244.594 172.699 239.542ZM396.787 223.642C387.287 225.064 384.602 234.898 383.838 243.192C383.643 245.314 384.246 247.661 383.364 249.695C381 255.513 375.934 257.395 370.69 259.832C364.06 262.904 357.333 265.761 350.518 268.4C345.074 260.413 342.02 249.413 337.313 240.237C334.878 253.062 330.844 261.144 324.198 272.073C326.623 275.589 329.637 280.056 332.352 283.343C334.765 286.453 340.089 292.763 344.289 293.022C355.873 293.738 369.74 285.44 379.957 280.469C383.195 278.893 389.292 275.928 391.817 274.388C380.362 268.892 379.907 266.849 384.983 255.14C387.536 249.251 389.962 243.215 392.954 237.431C392.19 235.896 390.683 232.98 392.479 231.747C395.272 232.308 399.303 243.875 404.284 235.78C403.916 232.31 402.567 226.678 399.746 224.33C398.886 223.615 397.892 223.685 396.787 223.642ZM172.288 144.462C164.324 145.03 152.764 145.095 146.555 150.443C144.564 152.159 148.398 155.104 149.786 155.834C172.459 167.745 201.758 170.846 226.797 170.448C245.765 168.907 269.337 164.406 235.995 153.28C218.404 147.283 199.94 144.248 181.355 144.301C178.687 144.31 174.889 144.242 172.288 144.462Z" fill="#6500FF"/>
<path d="M280.894 104.377C301.437 102.81 319.985 122.188 322.827 141.584C324.007 149.64 321.169 152.105 313.663 153.1C294.419 153.245 275.02 136.893 271.448 118.056C269.987 110.35 272.979 105.566 280.894 104.377Z" fill="#6500FF"/>
<path d="M365.503 107.815C374.978 107.27 374.829 113.726 374.054 121.111C372.487 136.039 363.109 149.482 348.067 153.132C344.265 153.183 339.998 151.412 339.393 147.399C336.948 131.187 350.259 111.871 365.503 107.815Z" fill="#6500FF"/>
<path d="M135.835 271.768C137.791 271.433 139.775 272.174 141.032 273.709C142.29 275.244 142.626 277.336 141.912 279.188C141.198 281.039 139.544 282.364 137.582 282.657C135.958 282.9 134.311 282.406 133.088 281.311C131.864 280.216 131.193 278.633 131.256 276.992C131.356 274.387 133.266 272.208 135.835 271.768Z" fill="#6500FF"/>
<path d="M152.812 173.423C155.847 172.738 158.861 174.649 159.535 177.686C160.209 180.723 158.288 183.729 155.249 184.393C152.225 185.053 149.236 183.144 148.565 180.122C147.894 177.1 149.793 174.105 152.812 173.423Z" fill="#6500FF"/>
<path d="M141.082 238.92C144.038 238.124 147.076 239.891 147.846 242.854C148.616 245.816 146.823 248.839 143.854 249.584C140.92 250.319 137.943 248.553 137.182 245.626C136.421 242.699 138.162 239.705 141.082 238.92Z" fill="#6500FF"/>
<path d="M147.003 206.226C149.9 205.582 152.778 207.379 153.472 210.265C154.166 213.151 152.418 216.06 149.545 216.803C147.642 217.296 145.621 216.723 144.259 215.305C142.897 213.887 142.406 211.845 142.975 209.963C143.544 208.081 145.083 206.652 147.003 206.226Z" fill="#6500FF"/>
<path d="M426.317 210.807C426.954 210.501 427.706 210.562 428.285 210.967C428.864 211.373 429.178 212.059 429.108 212.762C429.037 213.465 428.593 214.075 427.945 214.357C426.969 214.783 425.833 214.348 425.389 213.381C424.945 212.414 425.358 211.269 426.317 210.807Z" fill="#6500FF"/>
<path d="M200.764 179.278C203.382 179.233 206.404 179.336 209.03 179.392L209.237 181.346C206.027 180.485 204.274 180.642 200.764 179.278Z" fill="#6500FF"/>
<path d="M220.919 193.668C221.638 193.774 223.083 193.854 223.534 194.231C223.129 194.404 223.062 194.461 222.634 194.551C222.09 194.481 221.373 194.487 220.809 194.472L220.558 194.135L220.919 193.668Z" fill="#6500FF"/>
</svg>
