<svg width="1121" height="764" viewBox="0 0 1121 764" fill="none" xmlns="http://www.w3.org/2000/svg">
<path d="M426.601 624.183C397.01 628.253 358.45 617.047 342.49 591.596C313.347 545.122 347.194 489.636 402.67 498.522C443.77 505.104 456.876 544.167 457.533 580.937C457.624 586.052 457.873 591.676 456.884 596.486C473.192 592.404 487.319 587.683 503.136 582.009C501.538 579.663 500.118 577.563 498.873 575.002C492.584 561.814 491.72 546.688 496.465 532.87C507.129 502.545 543.267 492.36 571.814 502.567C572.853 503.063 573.88 503.586 574.891 504.136C594.726 514.99 598.88 536.018 588.751 555.455C581.601 569.178 556.964 583.879 542.647 587.964C565.611 604.886 590.526 624.444 593.07 655.176C596.024 690.855 566.114 720.884 531.216 722.961C512.528 724.074 494.774 722.74 479.812 710.259C470.273 702.179 464.259 690.7 463.045 678.259C461.888 665.252 466.849 649.25 475.516 638.828C482.81 630.06 502.274 619.316 513.427 627.492C515.302 628.866 516.173 631.568 516.33 633.894C517.149 646.753 500.639 646.327 494.168 654.472C487.269 663.154 484.426 675.611 490.883 685.434C506.307 708.895 543.163 703.314 559.825 684.381C566.281 677.047 568.952 666.902 568.062 657.296C566.338 637.926 553.535 627.733 539.635 616.404C532.843 610.903 526.098 605.343 519.403 599.723C499.982 608.707 473.828 615.023 453.115 620.559C452.288 622.508 451.73 624.431 451.23 626.469C441.479 666.189 415.808 708.908 374.087 720.403C356.031 725.377 334.854 724.159 318.147 714.43C296.829 702.017 291.296 684.683 285.314 662.252C270.732 689.471 234.698 719.033 203.261 721.307C102.712 728.581 115.823 603.872 154.266 547.113C171.14 522.202 192.641 501.542 224.123 498.275C259.152 495.771 283.61 515.721 275.856 552.515C273.055 565.807 258.135 586.47 242.163 583.915C239.558 583.497 234.324 580.47 233.228 577.835C228.936 567.519 241.771 561.979 247.999 556.757C253.017 551.355 255.59 537.737 251.39 531.317C242.111 516.133 219.585 519.997 206.522 528.277C178.409 546.095 161.174 578.838 153.758 610.252C146.521 640.909 145.795 688.228 184.048 697.036C203.538 701.522 224.365 692.168 239.381 680.019C264.652 658.355 283.668 628.042 290.735 595.424C292.743 587.012 295.966 581.474 298.971 573.375C302.818 563.002 312.795 546.76 325.272 557.696C329.706 561.58 328.132 569.36 325.843 574.295C322.037 582.494 317.223 591.17 314.874 600.044C307.684 625.375 304.137 653.715 316.485 678.094C329.046 701.788 356.723 706.43 378.516 692.919C405.582 676.921 417.958 652.957 426.601 624.183ZM404.14 601.397C413.647 601.958 423.005 602.224 432.403 600.231C432.764 581.331 433.421 564.297 426.11 546.321C423.927 540.949 421.238 535.651 417.191 531.429C411.133 525.11 401.731 521.098 392.99 520.882C390.907 520.83 388.814 520.987 386.742 521.197C377.593 522.616 368.738 526.944 363.127 534.498C357.604 541.934 355.264 553.582 356.66 562.694C358.508 574.769 365.158 583.421 374.879 590.494C383.404 596.694 393.817 599.821 404.14 601.397ZM526.876 572.088L536.67 567.108C547.836 561.233 565.635 552.808 569.531 539.662C570.436 536.604 570.124 533.506 568.564 530.728C566.004 526.165 561.501 523.333 556.555 521.971C553.232 521.056 550.192 520.949 546.782 521.21C537.802 523.027 527.71 526.87 522.403 534.812C518.223 541.071 517.482 549.7 519.031 556.937C520.254 562.595 522.961 567.825 526.876 572.088Z" fill="#6500FF"/>
<path d="M955.751 498.306C960.222 497.529 965.868 498.06 970.368 498.621C985.771 500.544 1001.37 508.063 1010.97 520.511C1026.65 540.851 1030.56 569.554 1027.23 594.464C1022.15 632.351 1005.68 676.052 974.399 699.952C984.169 708.133 993.77 715.492 1006.21 719.044C1008.17 719.603 1010.75 720.45 1012.78 720.263C1016.98 719.877 1021.44 717.381 1025.19 715.604C1029.87 713.39 1034.3 711.273 1039.64 711.694C1041.96 711.878 1044.2 712.571 1045.73 714.419C1047.74 716.841 1048.37 721.124 1048.04 724.156C1047.53 728.739 1043.67 732.088 1040.23 734.727C1030.72 742.027 1018.23 744.806 1006.42 743.206C990.434 741.039 977.323 733.231 965.167 722.957C961.664 719.996 957.958 716.929 955.183 713.267C941.648 721.93 923.028 725.029 907.32 722.375C892.72 719.908 879.601 712.742 870.982 700.548C876.067 694.248 881.28 689.37 889.013 686.595C894.629 690.385 899.231 695.401 905.518 698.219C916.104 702.96 927.905 700.73 938.258 696.696C929.087 689.083 918.233 679.555 905.927 678.018C884.379 675.325 869.946 693.255 854.567 705.129C842.398 714.524 827.207 722.826 811.257 720.717C802.603 719.572 794.292 715.898 788.921 708.825C783.021 701.052 781.18 691.915 781.359 682.307C781.65 666.638 786.642 650.32 791.536 635.522L807.467 588.896C811.876 575.679 816.231 562.818 818.146 548.946C819.245 540.994 818.957 534.399 813.965 527.797C810.727 527.181 806.754 526.652 803.619 527.87C797.034 530.425 791.338 537.547 786.989 542.819C758.211 577.706 743.679 638.836 730.335 682.176C727.556 691.201 726.257 701.136 722.556 709.768C721.084 713.198 719.335 715.684 715.761 717.051C712.242 718.396 707.812 718.362 704.381 716.754C701.755 715.525 699.939 713.712 699.572 710.756C698.158 699.401 706.628 676.265 710.082 664.898C717.581 640.218 745.69 553.765 737.462 532.053C736.695 530.027 735.461 528.143 733.403 527.266C730.576 526.059 727.054 526.872 724.361 528.057C714.931 532.204 707.389 543.663 702.032 552.104C683.291 581.632 672.133 614.286 661.745 647.451C659.333 655.151 656.618 662.76 654.321 670.493C650.156 684.515 647.012 699.03 641.676 712.662C640.916 713.937 639.885 715.153 639 716.35C635.84 717.798 632.134 718.637 628.653 718.384C626.065 718.195 623.65 717.068 621.976 715.068C619.13 711.664 619.045 707.005 619.606 702.833C621.177 691.149 628.735 668.346 632.593 656.254C636.038 645.454 638.962 634.526 642.22 623.674C648.864 601.538 657.296 574.835 659.378 551.95C659.826 547.029 661.418 529.578 658.609 526.536C658.065 525.948 657.602 526.127 656.849 526.127C654.788 527.262 653.559 528.954 652.405 530.97C649.612 535.842 647.719 541.47 645.501 546.633C641.269 556.485 636.278 566.084 630.032 574.818C624.968 581.896 619.315 587.188 610.409 588.661C608.151 587.887 605.753 587.287 603.838 585.802C601.78 584.206 600.303 581.735 600.023 579.133C599.153 571.01 611.237 561.366 615.503 553.999C623.086 540.905 626.769 525.533 636.217 513.475C640.989 507.383 647.353 503.121 655.18 502.21C661.61 501.459 668.232 502.892 673.296 507.059C684.393 516.194 682.154 526.845 683.412 539.255C684.607 538.598 695.976 521.773 699.532 518.226C707.917 509.863 719.323 503.019 731.456 503.071C739.489 503.106 747.521 505.983 753.185 511.808C760.315 519.144 762.222 528.963 762.046 538.837C766.264 530.72 772.881 522.346 779.804 516.351C789.679 507.796 801.427 502.45 814.651 503.407C822.476 503.993 829.746 507.672 834.854 513.629C862.343 546.103 806.996 640.511 805.251 678.41C804.419 718.665 844.55 684.2 856.964 673.177C891.555 642.46 929.304 651.526 957.406 684.535C963.439 677.149 971.457 670.254 977.103 662.351C991.969 641.544 1002.32 610.698 1003.35 585.284C1004.05 568.245 1001.46 546.145 989.238 533.371C983.136 526.762 970.152 520.555 960.999 521.026C908.625 523.721 883.763 583.852 879.031 629.005C878.257 636.377 878.406 644.294 878.27 651.456C869.754 655.44 864.854 658.982 857.287 664.628C843.781 601.812 882.897 503.011 955.751 498.306Z" fill="#6500FF"/>
<path d="M609.99 35.3894C615.965 34.436 627.252 36.267 633.361 37.8403C653.307 42.9776 670.434 54.8974 680.95 72.8141C692.305 92.1617 694.441 116.202 688.647 137.679C681.676 163.518 663.788 193.441 640.183 207.136C641.086 209.713 642.637 213.529 643.039 216.107C643.599 219.695 643.411 223.62 644.429 227.189C645.788 231.954 648.119 236.251 650.005 240.76C652.709 247.226 655.45 253.459 658.363 259.831C667.187 256.159 675.9 252.224 684.487 248.03C684.231 243.441 684.239 239.59 685.637 235.167C687.244 230.084 689.687 223.611 694.738 221.03C697.988 219.37 701.928 218.996 705.373 220.126C707.403 214.958 712.451 201.816 717.252 199.35C723.214 197.449 732.785 203.458 737.715 205.228C755.111 211.472 756.122 213.799 748.359 230.741C752.956 234.09 756.561 240.626 750.957 245.03C749.895 245.864 748.732 246.399 747.527 246.994C748.211 252.718 747.787 254.568 742.863 257.565C742.995 263.087 742.329 264.74 737.418 267.361C737.457 274.148 734.387 277.402 727.501 276.431C722.35 286.592 716.689 283.178 708.231 279.421C706.933 278.845 705.609 278.222 704.318 277.628C699.154 280.66 692.995 283.764 687.605 286.579C677.987 291.457 668.407 296.894 657.898 299.615C641.55 303.848 632.85 289.529 625.179 277.976C621.098 284.058 614.743 288.503 610.612 293.547C608.985 295.533 603.26 307.588 601.799 310.675C598.516 317.609 593.032 327.118 590.287 334.092C604.292 344.8 620.994 354.411 633.558 366.942C639.471 372.84 644.581 389.533 647.77 397.869C651.492 407.578 655.268 417.265 659.098 426.93C662.242 434.857 664.936 442.25 669.172 449.666C682.176 448.644 695.2 443.679 708.216 447.088C713.258 448.409 718.466 453.695 716.337 459.117C713.276 466.915 703.238 471.924 696.276 475.85C691.458 478.566 686.33 480.727 681.438 483.3C672.962 487.417 659.235 495.366 649.772 492.492C641.585 490.007 638.108 475.63 634.546 468.51C631.298 462.396 627.811 457.569 623.928 451.88C617.063 441.822 609.737 431.987 603.841 421.323C602.146 418.208 600.543 415.043 599.034 411.834C592.074 397.063 594.729 398.579 578.857 391.797C568.716 387.463 557.839 382.102 547.742 377.501C543.348 381.505 539.324 385.906 535.104 390.092C527.335 397.798 518.891 405.426 509.679 411.387C504.629 414.655 498.929 417.32 492.879 417.938C479.587 419.298 464.626 412.192 452.429 407.484C446.661 405.258 440.836 403.204 435.022 401.102C430.894 399.609 426.665 397.851 422.357 396.969C413.189 395.092 406.777 401.726 399.744 406.334C395.445 409.151 389.96 411.877 384.669 410.686C382.126 410.113 379.497 408.485 378.131 406.229C376.261 403.142 376.415 399.267 377.212 395.872C379.738 385.119 396.172 361.125 405.626 355.404C408.903 353.422 412.637 352.775 416.402 353.502C422.852 354.749 426.385 360.856 432.515 362.683C438.287 364.404 444.513 364.751 450.447 365.712C459.624 367.199 468.743 369.018 477.788 371.165C486.758 360.256 493.776 347.322 502.188 336.227C500.86 324.222 501.057 319.961 504.229 308.015C497.85 308.002 492.206 308.268 485.603 307.999C467.364 307.256 448.169 303.628 432.146 294.551C428.337 292.418 422.592 287.539 421.951 282.873C421.007 276.004 423.515 266.05 424.723 259.143L432.242 217.753L439.117 177.933C440.374 170.561 441.516 163.097 443.006 155.781C443.506 153.326 444.379 149.122 445.793 147.133C449.218 142.865 457.714 140.923 463.019 140.251C490.107 136.825 519.636 138.869 545.338 148.389C548.326 149.496 553.395 151.633 555.792 153.322C554.133 149.822 551.75 145.914 549.946 142.326C545.086 132.839 542.003 122.543 540.847 111.946C539.045 93.9039 544.576 75.8945 556.194 61.9731C566.067 49.7102 579.768 41.1139 595.105 37.561C600.213 36.385 604.787 35.9129 609.99 35.3894ZM594.183 227.053C601.243 231.84 604.593 234.215 600.713 243.015C602.924 248.485 602.451 251.318 597.811 255.225C599.164 261.15 597.103 262.281 593.283 266.282C592.583 267.015 592.011 268.889 591.425 269.814C587.465 275.448 578.249 275.607 572.195 275.41C559.945 289.431 540.302 297.87 521.843 299.139C519.413 299.284 516.981 299.404 514.548 299.498C510.3 312.814 504.233 325.91 511.311 339.514C523.171 362.308 560.049 375.407 582.492 385.397C587.123 387.459 594.627 390.01 597.952 393.764C601.348 397.599 603.375 404.306 605.61 409.016C607.307 412.59 609.222 416.103 611.167 419.546C619.675 434.598 630.554 448.013 639.476 462.767C643.021 468.628 644.415 475.598 648.057 481.368C649.18 483.148 650.61 484.879 652.666 485.568C657.595 487.222 667.825 481.664 672.468 479.509C679.48 476.241 706.424 464.454 708.774 457.721C709.05 456.929 709.034 456.084 708.67 455.322C708.148 454.228 707.036 453.632 705.925 453.287C695.229 449.971 673.89 459.151 666.706 456.329C664.04 455.282 662.11 452.485 660.769 450.06C657.005 443.252 654.877 435.572 652.132 428.323C648.003 417.418 643.605 406.605 639.563 395.67C637.214 389.319 635.202 382.221 631.723 376.388C630.054 373.59 627.737 371.265 625.344 369.083C619.445 363.705 612.873 359.086 606.4 354.439C600.151 349.952 593.924 345.423 587.615 341.022C583.204 337.945 577.716 335.267 573.94 331.447C572.692 330.184 571.828 328.934 572.337 327.102C572.481 326.585 572.789 326.074 573.272 325.808C574.523 325.118 576.491 325.838 577.678 326.347C579.976 327.333 582.043 328.818 584.113 330.204C590.388 317.802 596.566 305.351 602.646 292.852C606.294 285.35 609.693 277.73 612.837 270.003C620.596 251.185 627.995 230.62 622.541 210.102C619.532 209.297 622.541 210.102 619.532 209.297C617.275 207.845 612.01 205.589 611.258 204.837C604.516 200.858 602.737 200.294 596.303 195.646C592.881 193.175 586.483 187.048 583.401 185.257C584.705 191.133 586.392 192.043 588.921 197.063C593.64 206.434 594.351 216.76 594.183 227.053ZM588.104 267.207C586.031 267.117 581.442 266.891 580.297 264.864C580.628 261.018 592.307 263.995 593.297 259.267C593.458 258.493 593.288 258.541 592.888 258.014C589.896 256.589 583.165 258.621 581.902 256.126C583.083 250.708 600.633 254.436 596.444 245.68C595.738 245.471 590.741 247.126 589.316 247.284C588.019 247.428 586.883 247.56 585.496 247.626C584.694 247.428 584.142 247.396 583.588 246.803C583.213 245.973 583.168 246.001 583.324 245.062C586.035 240.648 606.562 242.407 593.279 232.293C588.683 235.541 585.314 235.621 579.898 235.515C570.285 235.328 569.749 234.217 569.528 225.233C561.9 229.636 558.684 234.193 553.742 241.196C542.078 238.471 530.346 233.992 518.242 232.26C515.521 231.871 509.308 231.61 507.872 229.471C507.349 222.815 532.225 229.564 535.717 230.528C539.612 228.616 543.325 226.689 547.547 225.35C549.218 224.821 554.573 223.771 553.133 227.603C552.153 230.211 547.8 231.744 545.264 232.67C545.088 232.735 544.91 232.798 544.731 232.857C546.936 233.682 549.147 234.49 551.364 235.281L551.512 235.124C552.796 233.735 554.407 231.398 555.628 229.868C559.924 224.479 563.108 222.51 569.373 220.174C567.234 211.414 565.222 201.515 556.622 196.381C553.63 194.617 550.186 193.773 546.718 193.953C534.271 195.666 509.947 213.787 499.639 221.235C493.274 225.833 482.609 236.391 483.799 244.916C484.271 248.299 486.649 251.575 489.524 253.515C502.253 261.565 521.057 262.397 535.704 262.832C540.363 262.97 544.719 262.945 549.293 263.274C551.315 263.42 553.946 265.675 555.888 266.577C563.181 269.961 572.463 270.947 580.417 270.174C582.928 269.93 586.038 268.523 588.104 267.207ZM409.516 391.634C417.383 387.682 423.337 389.459 431.405 392.081C443.908 396.169 455.961 401.855 468.412 406.019C478.477 409.386 490.364 413.538 500.375 408.02C515.948 399.435 528.615 386.825 540.694 374.01C528.545 367.573 516.513 360.553 508.892 348.913C508.232 347.906 505.991 344.774 505.095 344.246C498.851 352.461 493.674 361.4 487.644 369.766C485.441 372.823 482.987 376.489 480.322 379.118C469.11 376.52 457.822 374.258 446.475 372.338C441.534 371.489 436.067 371.384 431.298 370.032C423.256 367.754 421.363 361.493 412.626 359.931C404.951 362.035 393.312 378.893 389.291 385.944C387.229 389.561 382.924 396.939 383.929 401.017C384.16 401.955 384.678 402.77 385.556 403.218C387.397 404.158 390.139 403.212 391.953 402.534C398.537 400.072 403.392 394.838 409.516 391.634ZM507.771 299.875C502.486 298.292 488.886 298.88 483.382 298.111C485.962 297.846 500.768 296.289 502.744 294.556L502.872 294.062C502.315 293.161 501.327 293.398 499.823 293.398C496.814 293.398 499.071 293.398 485.531 293.398C490.796 291.894 500.337 291.468 502.505 291.35C502.622 289.76 502.757 288.694 503.021 287.121C501.462 286.875 491.603 287.485 490.151 287.121C492.238 286.797 501.505 285.553 503.6 285.289C504.562 283.975 505.533 282.667 506.515 281.368C504.94 281.252 497.749 280.741 496.169 280.81C499.108 279.781 513.426 277.916 516.354 277.752L517.074 274.406C490.883 276.327 452.809 274.405 432.032 256.332C430.657 262.283 426.376 278.689 429.579 283.503C434.796 291.346 452.035 297.002 461.129 298.842C471.65 300.97 498.359 304.433 507.771 299.875ZM617.768 42.108C596.843 42.5727 579.303 47.345 564.396 62.9876C520.407 109.147 571.886 178.952 617.212 199.918C633.277 205.853 640.809 201.036 651.99 189.196C678.204 161.437 694.876 118.465 677.852 81.7247C667.729 59.8754 641.863 42.89 617.768 42.108ZM444.635 183.597C447.308 185.854 449.944 188.067 453.119 189.982C470.556 200.498 492.372 202.491 512.305 203.163C514.563 203.239 517.497 201.522 519.457 200.509C517.726 200.121 515.844 199.886 514.387 199.639C512.61 199.338 504.615 199.155 503.804 198.642L503.959 198.41C508.326 198.129 523.98 196.157 527.742 194.751C528.169 194.661 528.236 194.604 528.642 194.43C528.19 194.053 526.745 193.973 526.026 193.868C520.158 193.4 510.145 191.876 504.953 189.831C515.832 190.203 522.483 191.224 533.752 188.034C529.841 187.861 512.817 187.325 509.709 186.031L508.133 185.358C508.691 185.071 511.857 185.202 512.71 185.183C520.609 185.012 527.935 184.635 535.525 182.139C527.952 182.27 521.863 182.178 514.345 181.546C511.134 180.685 509.381 180.841 505.871 179.478C508.49 179.433 511.511 179.536 514.137 179.592C528.088 179.839 534.401 180.082 547.678 174.106C544.766 174.34 541.805 174.583 538.906 174.943C528.163 176.276 517.182 175.827 506.407 174.856C486.467 173.061 465.963 170.433 448.981 158.922C447.85 166.413 446.447 176.41 444.635 183.597ZM719.748 204.081C715.925 206.745 712.08 218.04 709.839 222.949C712.665 230.202 718.121 243.269 703.882 242.416C702.565 242.337 701.869 240.903 701.147 242.703C698.382 249.509 693.346 257.885 692.079 265.055C692.511 265.667 693.098 266.446 693.716 266.847C698.324 269.843 714.784 277.142 719.568 278.053C720.445 277.488 721.101 277.191 721.624 276.319C721.855 274.216 718.604 273.732 716.983 272.809C710.484 268.698 709.099 264.312 714.984 258.725C712.577 253.173 714.152 250.57 718.665 247.239C717.381 240.244 719.715 236.78 726.658 235.553C725.685 230.818 727.18 226.305 732.47 225.464C736.032 224.898 740.516 226.683 743.566 228.447C745.323 224.535 747.013 220.867 747.933 216.638C747.531 216.133 746.851 215.341 746.311 215.038C740.915 212.019 725.311 204.897 719.748 204.081ZM729.707 265.123C725.059 265.145 722.177 263.081 717.745 261.9C711.696 266.155 718.403 269.208 722.342 270.965C724.383 271.876 726.727 272.495 728.961 272.489C734.96 272.346 732.663 268.319 733.469 265.598C734.729 261.345 739.323 265.531 738.417 258.332L738.013 255.357C745.189 251.628 744.146 251.655 742.411 244.574C745.208 243.498 746.154 243.326 748.625 241.628C750.933 237.505 748.024 235.226 744.496 233.253C741.253 231.44 737.648 230.096 734.111 228.972C731.658 230.045 729.523 231.441 730.51 234.392C731.664 237.842 739.678 239.641 740.091 242.624C738.691 245.335 734.138 242.323 732.224 241.509C728.102 239.588 721.752 237.851 722.586 244.903C722.771 246.473 724.742 247.247 725.694 247.965C727.816 249.567 735.765 250.718 735.15 254.082C732.487 256.445 724.038 250.933 720.803 250.983C719.479 251.004 718.103 253.029 718.097 254.482C718.072 260.412 728.32 259.556 729.965 263.744C729.918 264.414 729.956 264.513 729.707 265.123ZM556.833 182.25C550.157 183.502 547.654 184.686 542.448 189.076C548.715 187.709 555.495 188.039 560.901 191.757C572.981 200.064 575.505 214.793 575.613 228.304C575.795 229.097 575.751 229.656 576.507 230.038C579.043 231.322 584.414 230.092 587.235 229.903C589.545 211.333 582.561 185.073 560.846 182.316C559.553 182.152 558.132 182.151 556.833 182.25ZM544.585 268.86C538.716 268.948 531.535 268.971 525.712 268.278C525.084 271.166 523.924 274.395 522.959 277.212C528.49 275.888 531.945 275.131 537.21 272.868C539.597 271.712 542.475 270.398 544.585 268.86ZM520.298 292.934C537.101 291.134 550.863 285.807 563.751 274.665C560.27 273.5 556.413 272.119 552.916 271.07C543.401 277.803 534.214 282.26 522.509 283.739C519.097 284.246 515.348 283.85 512.096 285.062C509.904 285.879 508.081 289.815 509.776 291.636C511.842 293.857 517.556 293.234 520.298 292.934ZM617.322 277.171C618.138 276.146 619.174 274.911 619.924 273.869C633.205 255.912 641.728 231.182 633.96 209.297L630.418 209.474C629.476 209.541 629.179 209.38 628.636 209.875C628.551 211.922 629.024 215.414 629.387 217.532C632.274 234.412 627.404 250.661 621.328 266.225C619.925 269.819 618.784 273.623 617.322 277.171ZM439.251 216.067C449.038 227.592 465.846 230.935 480.108 234.182C483.105 228.49 485.63 225.742 490.207 221.418C495.394 216.814 500.731 212.5 506.671 208.877C490.194 207.906 470.315 205.134 455.227 198.032C451.498 196.277 446.927 193.111 443.382 190.785C442.229 197.008 439.525 210.068 439.251 216.067ZM556.936 171.487C554.999 172.138 553.982 172.515 552.176 173.51C560.859 167.978 559.355 177.757 552.5 177.412C560.107 170.987 552.764 177.59 553.337 177.457C555.275 176.68 551.008 174.309 550.328 171.739C549.57 171.268 557.817 171.442 556.936 171.487ZM563.642 175.848C566.601 176.133 569.554 176.469 572.501 176.854L573.311 176.876C574.272 174.513 567.304 168.318 565.46 166.874C565.014 169.379 564.387 173.524 563.642 175.848ZM477.699 239.542C464.38 237.26 452.504 233.718 441.166 226.219C440.103 225.516 438.787 224.699 437.674 224.097C435.903 232.33 434.92 240.903 433.236 248.815C435.935 251.505 439.198 254.785 442.488 256.698C458.132 265.798 483.884 269.321 501.6 269.317C504.904 269.294 508.205 269.106 511.49 268.757C513.355 268.456 515.267 268.115 517.128 267.843C504.643 265.652 488.093 264.008 480.372 252.861C477.348 248.494 477.365 244.594 477.699 239.542ZM701.787 223.642C692.287 225.064 689.602 234.898 688.838 243.192C688.643 245.314 689.246 247.661 688.364 249.695C686 255.513 680.934 257.395 675.69 259.832C669.06 262.904 662.333 265.761 655.518 268.4C650.074 260.413 647.02 249.413 642.313 240.237C639.878 253.062 635.844 261.144 629.198 272.073C631.623 275.589 634.637 280.056 637.352 283.343C639.765 286.453 645.089 292.763 649.289 293.022C660.873 293.738 674.74 285.44 684.957 280.469C688.195 278.893 694.292 275.928 696.817 274.388C685.362 268.892 684.907 266.849 689.983 255.14C692.536 249.251 694.962 243.215 697.954 237.431C697.19 235.896 695.683 232.98 697.479 231.747C700.272 232.308 704.303 243.875 709.284 235.78C708.916 232.31 707.567 226.678 704.746 224.33C703.886 223.615 702.892 223.685 701.787 223.642ZM477.288 144.462C469.324 145.03 457.764 145.095 451.555 150.443C449.564 152.159 453.398 155.104 454.786 155.834C477.459 167.745 506.758 170.846 531.797 170.448C550.765 168.907 574.337 164.406 540.995 153.28C523.404 147.283 504.94 144.248 486.355 144.301C483.687 144.31 479.889 144.242 477.288 144.462Z" fill="#6500FF"/>
<path d="M585.894 104.377C606.437 102.81 624.985 122.188 627.827 141.584C629.007 149.64 626.169 152.105 618.663 153.1C599.419 153.245 580.02 136.893 576.448 118.056C574.987 110.35 577.979 105.566 585.894 104.377Z" fill="#6500FF"/>
<path d="M670.503 107.815C679.978 107.27 679.829 113.726 679.054 121.111C677.487 136.039 668.109 149.482 653.067 153.132C649.265 153.183 644.998 151.412 644.393 147.399C641.948 131.187 655.259 111.871 670.503 107.815Z" fill="#6500FF"/>
<path d="M440.835 271.768C442.791 271.433 444.775 272.174 446.032 273.709C447.29 275.244 447.626 277.336 446.912 279.188C446.198 281.039 444.544 282.364 442.582 282.657C440.958 282.9 439.311 282.406 438.088 281.311C436.864 280.216 436.193 278.633 436.256 276.992C436.356 274.387 438.266 272.208 440.835 271.768Z" fill="#6500FF"/>
<path d="M457.812 173.423C460.847 172.738 463.861 174.649 464.535 177.686C465.209 180.723 463.288 183.729 460.249 184.393C457.225 185.053 454.236 183.144 453.565 180.122C452.894 177.1 454.793 174.105 457.812 173.423Z" fill="#6500FF"/>
<path d="M446.082 238.92C449.038 238.124 452.076 239.891 452.846 242.854C453.616 245.816 451.823 248.839 448.854 249.584C445.92 250.319 442.943 248.553 442.182 245.626C441.421 242.699 443.162 239.705 446.082 238.92Z" fill="#6500FF"/>
<path d="M452.003 206.226C454.9 205.582 457.778 207.379 458.472 210.265C459.166 213.151 457.418 216.06 454.545 216.803C452.642 217.296 450.621 216.723 449.259 215.305C447.897 213.887 447.406 211.845 447.975 209.963C448.544 208.081 450.083 206.652 452.003 206.226Z" fill="#6500FF"/>
<path d="M731.317 210.807C731.954 210.501 732.706 210.562 733.285 210.967C733.864 211.373 734.178 212.059 734.108 212.762C734.037 213.465 733.593 214.075 732.945 214.357C731.969 214.783 730.833 214.348 730.389 213.381C729.945 212.414 730.358 211.269 731.317 210.807Z" fill="#6500FF"/>
<path d="M505.764 179.278C508.382 179.233 511.404 179.336 514.03 179.392L514.237 181.346C511.027 180.485 509.274 180.642 505.764 179.278Z" fill="#6500FF"/>
<path d="M525.919 193.668C526.638 193.774 528.083 193.854 528.534 194.231C528.129 194.404 528.062 194.461 527.634 194.551C527.09 194.481 526.373 194.487 525.809 194.472L525.558 194.135L525.919 193.668Z" fill="#6500FF"/>
</svg>
