<svg width="1121" height="423" viewBox="0 0 1121 423" fill="none" xmlns="http://www.w3.org/2000/svg">
<path d="M426.601 283.183C397.01 287.253 358.45 276.047 342.49 250.596C313.347 204.122 347.194 148.636 402.67 157.522C443.77 164.104 456.876 203.167 457.533 239.937C457.624 245.052 457.873 250.676 456.884 255.486C473.192 251.404 487.319 246.683 503.136 241.009C501.538 238.663 500.118 236.563 498.873 234.002C492.584 220.814 491.72 205.688 496.465 191.87C507.129 161.545 543.267 151.36 571.814 161.567C572.853 162.063 573.88 162.586 574.891 163.136C594.726 173.99 598.88 195.018 588.751 214.455C581.601 228.178 556.964 242.879 542.647 246.964C565.611 263.886 590.526 283.444 593.07 314.176C596.024 349.855 566.114 379.884 531.216 381.961C512.528 383.074 494.774 381.74 479.812 369.259C470.273 361.179 464.259 349.7 463.045 337.259C461.888 324.252 466.849 308.25 475.516 297.828C482.81 289.06 502.274 278.316 513.427 286.492C515.302 287.866 516.173 290.568 516.33 292.894C517.149 305.753 500.639 305.327 494.168 313.472C487.269 322.154 484.426 334.611 490.883 344.434C506.307 367.895 543.163 362.314 559.825 343.381C566.281 336.047 568.952 325.902 568.062 316.296C566.338 296.926 553.535 286.733 539.635 275.404C532.843 269.903 526.098 264.343 519.403 258.723C499.982 267.707 473.828 274.023 453.115 279.559C452.288 281.508 451.73 283.431 451.23 285.469C441.479 325.189 415.808 367.908 374.087 379.403C356.031 384.377 334.854 383.159 318.147 373.43C296.829 361.017 291.296 343.683 285.314 321.252C270.732 348.471 234.698 378.033 203.261 380.307C102.712 387.581 115.823 262.872 154.266 206.113C171.14 181.202 192.641 160.542 224.123 157.275C259.152 154.771 283.61 174.721 275.856 211.515C273.055 224.807 258.135 245.47 242.163 242.915C239.558 242.497 234.324 239.47 233.228 236.835C228.936 226.519 241.771 220.979 247.999 215.757C253.017 210.355 255.59 196.737 251.39 190.317C242.111 175.133 219.585 178.997 206.522 187.277C178.409 205.095 161.174 237.838 153.758 269.252C146.521 299.909 145.795 347.228 184.048 356.036C203.538 360.522 224.365 351.168 239.381 339.019C264.652 317.355 283.668 287.042 290.735 254.424C292.743 246.012 295.966 240.474 298.971 232.375C302.818 222.002 312.795 205.76 325.272 216.696C329.706 220.58 328.132 228.36 325.843 233.295C322.037 241.494 317.223 250.17 314.874 259.044C307.684 284.375 304.137 312.715 316.485 337.094C329.046 360.788 356.723 365.43 378.516 351.919C405.582 335.921 417.958 311.957 426.601 283.183ZM404.14 260.397C413.647 260.958 423.005 261.224 432.403 259.231C432.764 240.331 433.421 223.297 426.11 205.321C423.927 199.949 421.238 194.651 417.191 190.429C411.133 184.11 401.731 180.098 392.99 179.882C390.907 179.83 388.814 179.987 386.742 180.197C377.593 181.616 368.738 185.944 363.127 193.498C357.604 200.934 355.264 212.582 356.66 221.694C358.508 233.769 365.158 242.421 374.879 249.494C383.404 255.694 393.817 258.821 404.14 260.397ZM526.876 231.088L536.67 226.108C547.836 220.233 565.635 211.808 569.531 198.662C570.436 195.604 570.124 192.506 568.564 189.728C566.004 185.165 561.501 182.333 556.555 180.971C553.232 180.056 550.192 179.949 546.782 180.21C537.802 182.027 527.71 185.87 522.403 193.812C518.223 200.071 517.482 208.7 519.031 215.937C520.254 221.595 522.961 226.825 526.876 231.088Z" fill="#6500FF"/>
<path d="M955.751 157.306C960.222 156.529 965.868 157.06 970.368 157.621C985.771 159.544 1001.37 167.063 1010.97 179.511C1026.65 199.851 1030.56 228.554 1027.23 253.464C1022.15 291.351 1005.68 335.052 974.399 358.952C984.169 367.133 993.77 374.492 1006.21 378.044C1008.17 378.603 1010.75 379.45 1012.78 379.263C1016.98 378.877 1021.44 376.381 1025.19 374.604C1029.87 372.39 1034.3 370.273 1039.64 370.694C1041.96 370.878 1044.2 371.571 1045.73 373.419C1047.74 375.841 1048.37 380.124 1048.04 383.156C1047.53 387.739 1043.67 391.088 1040.23 393.727C1030.72 401.027 1018.23 403.806 1006.42 402.206C990.434 400.039 977.323 392.231 965.167 381.957C961.664 378.996 957.958 375.929 955.183 372.267C941.648 380.93 923.028 384.029 907.32 381.375C892.72 378.908 879.601 371.742 870.982 359.548C876.067 353.248 881.28 348.37 889.013 345.595C894.629 349.385 899.231 354.401 905.518 357.219C916.104 361.96 927.905 359.73 938.258 355.696C929.087 348.083 918.233 338.555 905.927 337.018C884.379 334.325 869.946 352.255 854.567 364.129C842.398 373.524 827.207 381.826 811.257 379.717C802.603 378.572 794.292 374.898 788.921 367.825C783.021 360.052 781.18 350.915 781.359 341.307C781.65 325.638 786.642 309.32 791.536 294.522L807.467 247.896C811.876 234.679 816.231 221.818 818.146 207.946C819.245 199.994 818.957 193.399 813.965 186.797C810.727 186.181 806.754 185.652 803.619 186.87C797.034 189.425 791.338 196.547 786.989 201.819C758.211 236.706 743.679 297.836 730.335 341.176C727.556 350.201 726.257 360.136 722.556 368.768C721.084 372.198 719.335 374.684 715.761 376.051C712.242 377.396 707.812 377.362 704.381 375.754C701.755 374.525 699.939 372.712 699.572 369.756C698.158 358.401 706.628 335.265 710.082 323.898C717.581 299.218 745.69 212.765 737.462 191.053C736.695 189.027 735.461 187.143 733.403 186.266C730.576 185.059 727.054 185.872 724.361 187.057C714.931 191.204 707.389 202.663 702.032 211.104C683.291 240.632 672.133 273.286 661.745 306.451C659.333 314.151 656.618 321.76 654.321 329.493C650.156 343.515 647.012 358.03 641.676 371.662C640.916 372.937 639.885 374.153 639 375.35C635.84 376.798 632.134 377.637 628.653 377.384C626.065 377.195 623.65 376.068 621.976 374.068C619.13 370.664 619.045 366.005 619.606 361.833C621.177 350.149 628.735 327.346 632.593 315.254C636.038 304.454 638.962 293.526 642.22 282.674C648.864 260.538 657.296 233.835 659.378 210.95C659.826 206.029 661.418 188.578 658.609 185.536C658.065 184.948 657.602 185.127 656.849 185.127C654.788 186.262 653.559 187.954 652.405 189.97C649.612 194.842 647.719 200.47 645.501 205.633C641.269 215.485 636.278 225.084 630.032 233.818C624.968 240.896 619.315 246.188 610.409 247.661C608.151 246.887 605.753 246.287 603.838 244.802C601.78 243.206 600.303 240.735 600.023 238.133C599.153 230.01 611.237 220.366 615.503 212.999C623.086 199.905 626.769 184.533 636.217 172.475C640.989 166.383 647.353 162.121 655.18 161.21C661.61 160.459 668.232 161.892 673.296 166.059C684.393 175.194 682.154 185.845 683.412 198.255C684.607 197.598 695.976 180.773 699.532 177.226C707.917 168.863 719.323 162.019 731.456 162.071C739.489 162.106 747.521 164.983 753.185 170.808C760.315 178.144 762.222 187.963 762.046 197.837C766.264 189.72 772.881 181.346 779.804 175.351C789.679 166.796 801.427 161.45 814.651 162.407C822.476 162.993 829.746 166.672 834.854 172.629C862.343 205.103 806.996 299.511 805.251 337.41C804.419 377.665 844.55 343.2 856.964 332.177C891.555 301.46 929.304 310.526 957.406 343.535C963.439 336.149 971.457 329.254 977.103 321.351C991.969 300.544 1002.32 269.698 1003.35 244.284C1004.05 227.245 1001.46 205.145 989.238 192.371C983.136 185.762 970.152 179.555 960.999 180.026C908.625 182.721 883.763 242.852 879.031 288.005C878.257 295.377 878.406 303.294 878.27 310.456C869.754 314.44 864.854 317.982 857.287 323.628C843.781 260.812 882.897 162.011 955.751 157.306Z" fill="#6500FF"/>
</svg>
